<svg xmlns="http://www.w3.org/2000/svg" version="1.0" width="256.000000pt" height="256.000000pt" viewBox="0 0 256.000000 256.000000" preserveAspectRatio="xMidYMid meet">

<g transform="translate(0.000000,256.000000) scale(0.100000,-0.100000)" fill="#FFFFFF" stroke="none">
<path d="M1118 2389 c-191 -28 -384 -113 -542 -238 -219 -174 -371 -448 -405 -728 l-7 -63 363 0 c300 0 363 2 363 14 0 7 16 45 35 83 127 254 469 299 655 87 32 -37 90 -147 90 -171 0 -10 79 -13 363 -13 l363 0 -7 64 c-22 177 -106 385 -218 534 -242 321 -655 490 -1053 431z" fill="#FFFFFF"/>
<path d="M1200 1507 c-49 -16 -133 -102 -148 -153 -28 -94 -8 -169 63 -239 101 -102 229 -102 330 0 102 101 102 229 0 330 -70 71 -152 91 -245 62z" fill="#FFFFFF"/>
<path d="M171 1136 c41 -335 248 -650 541 -822 375 -219 854 -201 1207 46 259 182 433 470 470 776 l7 64 -363 0 c-284 0 -363 -3 -363 -12 0 -25 -58 -135 -90 -172 -186 -212 -528 -167 -655 87 -19 38 -35 76 -35 83 0 12 -63 14 -363 14 l-363 0 7 -64z" fill="#FFFFFF"/>
</g>
</svg>